
        <svg xmlns="http://www.w3.org/2000/svg" xmlns:xlink="http://www.w3.org/1999/xlink" version="1.1" width="3161.948324885647" 
        height="642.7205030712777" viewBox="0 -72.87674619854123 3161.948324885647 642.7205030712777">
			<rect fill="#ffffff" width="3161.948324885647" height="642.7205030712777"/>
			<g transform="scale(8.097416244282359) translate(10, 10)">
				<defs id="SvgjsDefs6950"></defs><g id="SvgjsG6951" featureKey="LwVBM5-0" transform="matrix(0.935114503816794,0,0,0.935114503816794,15,-31.44462086044195)" fill="#f3eff5"><polygon xmlns="http://www.w3.org/2000/svg" points="0,56.963 0,58.283 36.834,48.494 37.663,47.06 "></polygon><polygon xmlns="http://www.w3.org/2000/svg" points="61.876,42.887 100,48.791 100,62.448 68.332,54.066 "></polygon><path xmlns="http://www.w3.org/2000/svg" d="M20.954,75.998l30.021-51.996l30.019,51.996H20.954z M36.834,48.494l31.498,5.573l-6.456-11.18L37.663,47.06L36.834,48.494z  "></path></g><g id="SvgjsG6952" featureKey="YhTCwJ-0" transform="matrix(1.8611422273990186,0,0,1.8611422273990186,112.4005347503169,-9.305711136995093)" fill="#1e1e1f"><path d="M7.9297 20.19531 c-4.0723 0 -7.0703 -2.8125 -7.0703 -7.2168 c0 -4.4629 3.0664 -7.2852 7.2168 -7.2852 c2.7246 0 4.9805 1.2012 6.2109 3.3203 l-2.5684 1.3672 c-0.74219 -1.4453 -2.0703 -2.1387 -3.6426 -2.1387 c-2.4414 0 -4.2773 1.6797 -4.2773 4.668 c0 2.8809 1.7188 4.7363 4.3848 4.7363 c1.8066 0 3.4668 -0.89844 3.8672 -2.959 l-3.8574 0 l0 -2.3535 l6.6309 0 l0 7.666 l-2.3047 0 l0 -1.9531 c-0.9082 1.3379 -2.4316 2.1484 -4.5898 2.1484 z M22.16795625 20.19531 c-3.1934 0 -5.498 -1.9434 -5.498 -5.2246 c0 -3.2617 2.2852 -5.2051 5.498 -5.2051 c3.2324 0 5.5078 1.9434 5.5078 5.2051 c0 3.2813 -2.2852 5.2246 -5.5078 5.2246 z M22.13865625 17.959 c1.6309 0 2.7441 -1.1914 2.7441 -2.9883 s-1.1133 -2.9883 -2.7441 -2.9883 c-1.5723 0 -2.6758 1.1914 -2.6758 2.9883 s1.1035 2.9883 2.6758 2.9883 z M29.736346875 15.976600000000001 l0 -2.3535 l7.002 0 l0 2.3535 l-7.002 0 z M48.1740625 5.888999999999999 l0 2.5781 l-3.3496 0 l0 11.533 l-2.9004 0 l0 -11.533 l-3.3691 0 l0 -2.5781 l9.6191 0 z M54.697253125 20.19531 c-3.1934 0 -5.498 -1.9434 -5.498 -5.2246 c0 -3.2617 2.2852 -5.2051 5.498 -5.2051 c3.2324 0 5.5078 1.9434 5.5078 5.2051 c0 3.2813 -2.2852 5.2246 -5.5078 5.2246 z M54.667953125 17.959 c1.6309 0 2.7441 -1.1914 2.7441 -2.9883 s-1.1133 -2.9883 -2.7441 -2.9883 c-1.5723 0 -2.6758 1.1914 -2.6758 2.9883 s1.1035 2.9883 2.6758 2.9883 z M62.26564375 15.976600000000001 l0 -2.3535 l7.002 0 l0 2.3535 l-7.002 0 z M88.691359375 20 l-2.9199 0 l-0.92773 -10.635 l-3.5742 10.635 l-1.8945 0 l-3.5742 -10.635 l-0.9375 10.635 l-2.9297 0 l1.1816 -14.111 l4.1797 0 l3.0078 8.8574 l3.0469 -8.8574 l4.1797 0 z M99.619140625 17.2754 c0 1.2305 0.11719 2.0117 0.24414 2.4512 l0 0.27344 l-2.627 0 l-0.22461 -1.0938 c-0.75195 0.9082 -2.0508 1.2891 -3.2227 1.2891 c-1.582 0 -3.125 -0.70313 -3.125 -2.793 c0 -2.0801 1.5527 -2.7832 3.6523 -3.2422 l1.6504 -0.37109 c0.71289 -0.16602 0.9668 -0.41016 0.9668 -0.82031 c0 -0.98633 -0.89844 -1.2598 -1.6895 -1.2598 c-1.0156 0 -1.7871 0.40039 -1.9629 1.5332 l-2.4902 -0.44922 c0.41992 -2.0801 1.9434 -3.0273 4.6094 -3.0273 c2.0117 0 4.2188 0.5957 4.2188 3.623 l0 3.8867 z M94.667940625 18.291 c1.3379 0 2.4121 -0.88867 2.4121 -2.8809 l-2.3828 0.67383 c-0.78125 0.18555 -1.3477 0.45898 -1.3477 1.1328 c0 0.72266 0.5957 1.0742 1.3184 1.0742 z M105.0488375 11.5527 c0.50781 -0.88867 1.8262 -1.709 3.2813 -1.709 l0 2.5098 c-2.1289 0 -3.1445 0.625 -3.1445 2.7539 l0 4.8926 l-2.832 0 l0 -10.039 l2.6953 0 l0 1.5918 z M116.640590625 20 l-3.2324 -4.2188 l-0.58594 0 l0 4.2188 l-2.8418 0 l0 -15 l2.8418 0 l0 8.8281 l0.52734 0 l3.1543 -3.8672 l3.1836 0 l-3.9551 4.6582 l4.3262 5.3809 l-3.418 0 z M130.9370625 14.834 l-0.029297 0.67383 l-7.4414 0 c0.11719 1.6699 1.2305 2.4707 2.5684 2.4707 c1.0059 0 1.7871 -0.46875 2.168 -1.3574 l2.5781 0.38086 c-0.66406 2.0313 -2.4707 3.1934 -4.7266 3.1934 c-3.2422 0 -5.3613 -1.9141 -5.3613 -5.2148 s2.1777 -5.2344 5.2734 -5.2344 c2.8418 0 4.9609 1.5723 4.9707 5.0879 z M125.9863625 11.7383 c-1.2793 0 -2.168 0.5957 -2.4414 1.9336 l4.6094 0 c-0.14648 -1.2793 -1.0156 -1.9336 -2.168 -1.9336 z M136.81639375 20 c-1.9531 0 -3.0664 -1.1328 -3.0664 -3.1348 l0 -4.7461 l-1.9727 0 l0 -2.1582 l0.63477 0 c1.0645 0 1.6504 -0.41016 1.6504 -1.9141 l0 -1.3281 l2.5391 0 l0 3.2422 l2.0703 0 l0 2.1582 l-2.0703 0 l0 4.4434 c0 0.89844 0.43945 1.2988 1.1621 1.2988 l0.9082 0 l0 2.1387 l-1.8555 0 z"></path></g><g id="SvgjsG6953" featureKey="duLK5n-0" transform="matrix(0.8540849443117601,0,0,0.8540849443117601,125.2825685164551,29.875490334129438)" fill="#171616"><path d="M6.64 10.34 l0 2.78 l-2.8 0 l0 1.88 c0 1.54 1.02 2.32 2.5 2.32 c0.18 0 0.34 -0.02 0.48 -0.04 s0.26 -0.04 0.4 -0.06 l0 2.78 c-0.18 0.02 -0.32 0.06 -0.42 0.08 c-0.12 0.02 -0.32 0.02 -0.58 0.02 c-3.02 0 -5.38 -2.06 -5.38 -5.1 l0 -7.4 l3 0 l0 2.74 l2.8 0 z M20.128500000000003 15 l0 5 l-3 0 l0 -14 l3 0 l0 4.92 c0.7 -0.74 1.58 -1.02 2.58 -1.02 c2.84 0 4.62 2.44 4.62 5.1 l0 5 l-3 0 l0 -5 c0 -1.36 -0.54 -2.32 -2 -2.32 c-1.44 0 -2.2 0.92 -2.2 2.32 z M40.23700000000001 13.8 c0.3 0.1 0.64 0.18 1 0.22 c0.36 0.06 0.7 0.08 1.02 0.08 c0.4 0 1.42 -0.08 1.42 -0.66 c0 -0.62 -0.88 -0.64 -1.32 -0.64 c-0.88 0 -1.64 0.2 -2.12 1 z M45.897000000000006 16.88 l0 2.8 c-1.12 0.26 -2.24 0.44 -3.4 0.44 c-3.18 0 -5.54 -1.86 -5.54 -5.08 c0 -3.18 2.28 -5.14 5.3 -5.14 c2.06 0 4.44 0.98 4.44 3.32 c0 2.32 -2.52 3.18 -4.46 3.18 c-0.74 0 -1.48 -0.2 -2.16 -0.48 c0.4 1.12 1.6 1.3 2.64 1.3 c0.54 0 1.08 -0.02 1.62 -0.1 c0.5 -0.04 1.08 -0.1 1.56 -0.24 z M72.31400000000001 15 l0 5 l-3 0 l0 -4.98 c0 -3.32 2.44 -5.12 5.52 -5.12 c0.1 0 0.24 0 0.38 0.02 s0.3 0.06 0.44 0.08 l0 2.9 c-0.1 -0.02 -0.22 -0.04 -0.36 -0.06 s-0.26 -0.04 -0.36 -0.04 c-0.5 0 -0.9 0.06 -1.24 0.16 c-0.56 0.2 -1.06 0.58 -1.24 1.18 c-0.1 0.26 -0.14 0.56 -0.14 0.86 z M87.72250000000001 13.8 c0.3 0.1 0.64 0.18 1 0.22 c0.36 0.06 0.7 0.08 1.02 0.08 c0.4 0 1.42 -0.08 1.42 -0.66 c0 -0.62 -0.88 -0.64 -1.32 -0.64 c-0.88 0 -1.64 0.2 -2.12 1 z M93.38250000000001 16.88 l0 2.8 c-1.12 0.26 -2.24 0.44 -3.4 0.44 c-3.18 0 -5.54 -1.86 -5.54 -5.08 c0 -3.18 2.28 -5.14 5.3 -5.14 c2.06 0 4.44 0.98 4.44 3.32 c0 2.32 -2.52 3.18 -4.46 3.18 c-0.74 0 -1.48 -0.2 -2.16 -0.48 c0.4 1.12 1.6 1.3 2.64 1.3 c0.54 0 1.08 -0.02 1.62 -0.1 c0.5 -0.04 1.08 -0.1 1.56 -0.24 z M113.87100000000001 10 l-4.1 10 l-3 0 l-4.1 -10 l2.98 0 c0.44 1.14 0.88 2.26 1.32 3.4 c0.42 1.14 0.86 2.26 1.3 3.4 c0.44 -1.14 0.88 -2.26 1.32 -3.4 c0.42 -1.14 0.86 -2.26 1.3 -3.4 l2.98 0 z M125.37950000000002 13.8 c0.3 0.1 0.64 0.18 1 0.22 c0.36 0.06 0.7 0.08 1.02 0.08 c0.4 0 1.42 -0.08 1.42 -0.66 c0 -0.62 -0.88 -0.64 -1.32 -0.64 c-0.88 0 -1.64 0.2 -2.12 1 z M131.03950000000003 16.88 l0 2.8 c-1.12 0.26 -2.24 0.44 -3.4 0.44 c-3.18 0 -5.54 -1.86 -5.54 -5.08 c0 -3.18 2.28 -5.14 5.3 -5.14 c2.06 0 4.44 0.98 4.44 3.32 c0 2.32 -2.52 3.18 -4.46 3.18 c-0.74 0 -1.48 -0.2 -2.16 -0.48 c0.4 1.12 1.6 1.3 2.64 1.3 c0.54 0 1.08 -0.02 1.62 -0.1 c0.5 -0.04 1.08 -0.1 1.56 -0.24 z M151.888 15 l0 5 l-3 0 l0 -5 c0 -1.38 -0.64 -2.32 -2.1 -2.32 c-1.44 0 -2.1 0.96 -2.1 2.32 l0 5 l-3 0 l0 -5 c0 -3.08 2.12 -5.1 5.1 -5.1 c3.1 0 5.1 2.12 5.1 5.1 z M169.1365 10 l3 0 l0 5 c0 3.06 -2.12 5.1 -5.1 5.1 c-3.06 0 -5.1 -2.14 -5.1 -5.1 l0 -5 l3 0 l0 5 c0 1.34 0.68 2.32 2.1 2.32 c1.46 0 2.1 -0.96 2.1 -2.32 l0 -5 z M185.205 13.8 c0.3 0.1 0.64 0.18 1 0.22 c0.36 0.06 0.7 0.08 1.02 0.08 c0.4 0 1.42 -0.08 1.42 -0.66 c0 -0.62 -0.88 -0.64 -1.32 -0.64 c-0.88 0 -1.64 0.2 -2.12 1 z M190.865 16.88 l0 2.8 c-1.12 0.26 -2.24 0.44 -3.4 0.44 c-3.18 0 -5.54 -1.86 -5.54 -5.08 c0 -3.18 2.28 -5.14 5.3 -5.14 c2.06 0 4.44 0.98 4.44 3.32 c0 2.32 -2.52 3.18 -4.46 3.18 c-0.74 0 -1.48 -0.2 -2.16 -0.48 c0.4 1.12 1.6 1.3 2.64 1.3 c0.54 0 1.08 -0.02 1.62 -0.1 c0.5 -0.04 1.08 -0.1 1.56 -0.24 z M217.282 15 c0 1.48 0.74 2.32 2.24 2.32 c0.42 0 0.8 -0.06 1.1 -0.2 c0.56 -0.22 0.94 -0.64 1.14 -1.22 c0.08 -0.28 0.12 -0.58 0.12 -0.9 s-0.04 -0.62 -0.12 -0.9 c-0.22 -0.62 -0.56 -0.96 -1.14 -1.24 c-0.3 -0.12 -0.68 -0.18 -1.1 -0.18 c-1.5 0 -2.24 0.84 -2.24 2.32 z M217.282 19 l0 5 l-3 0 l0 -9 c0 -3.2 2.26 -5.1 5.28 -5.1 c3.08 0 5.32 2.02 5.32 5.08 c0 2.84 -2.14 5.12 -4.98 5.12 c-0.58 0 -1.08 -0.1 -1.5 -0.3 c-0.44 -0.18 -0.82 -0.46 -1.12 -0.8 z M241.67050000000003 15 c-0.08 -1.46 -0.74 -2.32 -2.26 -2.32 c-0.42 0 -0.78 0.06 -1.08 0.18 c-0.92 0.42 -1.26 1.2 -1.26 2.16 c0 0.32 0.04 0.62 0.14 0.88 c0.3 1.04 1.2 1.42 2.2 1.42 c1.52 0 2.26 -0.82 2.26 -2.32 z M245.47050000000002 20 l-3 0 c-0.2 -0.5 -0.38 -1 -0.5 -1.52 c-0.68 1.12 -1.72 1.62 -3 1.62 c-2.86 0 -4.9 -2.4 -4.9 -5.14 c0 -3.16 2.36 -5.06 5.34 -5.06 c3.18 0 5.18 2.04 5.26 5.1 c0.02 0.26 0.02 0.56 0.02 0.92 c0 1.4 0.22 2.8 0.78 4.08 z M260.439 10.34 l0 2.78 l-2.8 0 l0 1.88 c0 1.54 1.02 2.32 2.5 2.32 c0.18 0 0.34 -0.02 0.48 -0.04 s0.26 -0.04 0.4 -0.06 l0 2.78 c-0.18 0.02 -0.32 0.06 -0.42 0.08 c-0.12 0.02 -0.32 0.02 -0.58 0.02 c-3.02 0 -5.38 -2.06 -5.38 -5.1 l0 -7.4 l3 0 l0 2.74 l2.8 0 z M273.9275 15 l0 5 l-3 0 l0 -14 l3 0 l0 4.92 c0.7 -0.74 1.58 -1.02 2.58 -1.02 c2.84 0 4.62 2.44 4.62 5.1 l0 5 l-3 0 l0 -5 c0 -1.36 -0.54 -2.32 -2 -2.32 c-1.44 0 -2.2 0.92 -2.2 2.32 z"></path></g>
			</g>
		</svg>
	